<svg id="图层_1" data-name="图层 1" xmlns="http://www.w3.org/2000/svg" viewBox="0 0 238.34 65.87"><defs><style>.cls-1{fill:#666;}</style></defs><path class="cls-1" d="M128.45,44.71c-9.56-.36-11.61,1.28-12.63,10-.25,2.12-.68,4.22-.93,6.34-.17,1.42.41,3.19-1.55,3.73-2.27.62-3.78-.88-5.07-2.39-1.59-1.85-1.38-4.83-4.24-6.33-2.94,5.72-9.49,5.55-14.41,8.32-1.74,1-1.82-.51-2.53-1.23-1.07-1.08-.82-1.93.23-2.85,2-1.73,3.89-3.58,5.9-5.29a26.93,26.93,0,0,0,6.3-6.91c1-1.86,2-3.38-1.36-4.06s-2.34-3.36-2-5.62C102.39,40,102.35,40,104,33.84c.77-2.87,1.59-5.78,1.26-8.72-.19-1.68-.22-3.5.58-4.57.68-.89,2.45.13,3.54.91,1.6,1.13,2.44,2.46,1.94,4.62-.7,3-1,6.08-1.55,9.29,2.74-.21,4.63-1.59,6.68-2.54s2.38-2.85.9-4c-4.76-3.65-2-7.4,0-10.58,3.25-5.42,8.34-9.76,9.59-16.36A1.25,1.25,0,0,1,128.21.74a1.16,1.16,0,0,1,.51.15C130.89,2,133.29,3,135,4.71c2,2,.69,3.73-1.35,5.19a73.82,73.82,0,0,0-11.86,11.24c1.47.37,2.63.6,3.74,1,2.12.67,3.61,1.54.76,3.35-1.25.8-2,2.11-1.4,3.36.77,1.58,2.41.58,3.55.33,3.87-.84,7.69-1.91,11.54-2.89,1-.24,2-.91,2.84-.65,2.27.72,5.67,1.09,5.52,4s-3.31,3-5.55,2.45c-5.86-1.55-11,.9-16.37,2.32-1.86.49-3.12,1.65-2.74,3.5.51,2.47,2.28,1.73,3.87,1,2.28-1.09,2.28.68,1.93,1.86-.42,1.39-1.19,2.68-1.18,4.2Z" transform="translate(0 -0.07)"/><path class="cls-1" d="M201.38,45.27c-1.62-.26-2.85,0-3.51,1.81s.52,2.1,1.69,2.83c3.11,1.93.93,3.25-.85,4-4,1.78-8.2,3.12-11.65,6.22-2-4.94.38-8,3.52-10.75.29-3.05.59-6.09.62-9.17,0-2.57-1-4-3.63-4.16-1.64-2,.51-2.93,1.4-3.36,4.21-2,4.11-6.09,2.55-8.6-1.84-3,.75-3,1.52-4,1.14-1.37,3-1.11,4.57-.31a1.6,1.6,0,0,1,1,2.06,1.37,1.37,0,0,1-.23.43c-2.38,2.82-.13,5.78-.46,8.75,1.5-1.12,2.64-2.25,2.79-4.25.13-1.81,2-4,2.9-3.79,5.93,1.28,3.93-2.88,4-5.42s1.61-6.5-.8-7.67-4.69,2.28-7,3.82c-1.06.72-2.4,2.16-3.4.91-1.27-1.58.72-2.5,1.77-3.25,2.55-1.81,5.2-3.49,7.89-5.1a5.48,5.48,0,0,1,6.47.26c2.17,1.65,1.06,3.69.57,5.8a71.9,71.9,0,0,0,1.51,38.46,8.16,8.16,0,0,0,7.11,6.08c3.44.4,7.3-.14,8.89-3,1.24-2.23-1.85-4.62-3.64-6.33a82.36,82.36,0,0,1-8.4-8.72c2.23-3.55,4.77-2.28,7.34-.49,3.52,2.45,7.5,4.29,10.27,7.68,3.42,4.18,3,7.51-1.63,10.19a33.24,33.24,0,0,1-8.15,3.51c-5.88,1.57-10.86-.79-13.61-6.2-1-2.09-1.8-4.23-2.54-6.4-3.37-3.88-2-9-3.55-13.41-4.7,1.56-1.05,4.9-1.69,7.31A16,16,0,0,1,201.38,45.27Z" transform="translate(0 -0.07)"/><path class="cls-1" d="M36,48.7c-.38-.53-1.21-1-1.71-.57" transform="translate(0 -0.07)"/><path class="cls-1" d="M34.3,48.13c-1.23,1,.63,2,.1,3.08-1.33,1.92-3.42,2.32-5.5,2.73a13.48,13.48,0,0,0-8.6,3.31,2.1,2.1,0,0,1-2.68.52c-1.21-.73-1.19-1.89-.9-3.05.71-2.89,2.78-4.87,5.06-6.47,4.41-3.12,6.74-7.28,6.41-12.57-.18-2.84,1-4.34,3.4-3.91,2.18.4,4.24,1.85,3.59,4.93-.42,2-3.92,4.79,1.19,5.9,7.12,1.56,9.4.89,10.29-4.2.62-3.53,2.51-7.8-3.69-9.29-2.84-.69-2.41-4.07-1.8-6.46,1.13-4.35,3.65-8.49.28-13.08-1-1.33,1.14-2.16,2.2-2.55A3.11,3.11,0,0,1,47.94,9.2a15.61,15.61,0,0,1-.48,12c-1.23,2.59-1.63,4.36,1.4,6.42a9.74,9.74,0,0,1,3.76,11.44c-1.48,4.22.52,6,3.21,8.1.27.2.57.35.82.56,1.94,1.7,5.94,2.94,3.82,6.14-1.86,2.8-5.87,2.28-8.47.53-3.42-2.3-5.88-1.78-9.22.25a25.13,25.13,0,0,1-15.69,3.18c0-2.21,2-2.11,3-2.92,1.11-1.81,3.38-2,4.76-3.5.53-.85,2.26-1.23,1.18-2.72" transform="translate(0 -0.07)"/><path class="cls-1" d="M14.45,37.9c2.76.32,5.23,1.27,7.53-1.62.61,5.47-1,8.59-5.93,9-2,.15-2,1.38-2.32,2.52-1,4.22-1.4,8.36,1.17,12.33,1,1.59,2.32,3.83.31,5.36-1.66,1.26-3.36-.45-4.88-1.36-2.14-1.29-4.45-2.72-4.22-5.53.46-5.49-1.71-9.94-4.94-14.08-.71-.9-1.85-1.83-.65-2.9,1-.94,2.21-.2,3,.67,1.67,1.82,3.26,3.71,5.25,6A46.3,46.3,0,0,1,13,34.6c1.69-3.21-1.55-3.39-3-2.94-2.85.86-4.36-.31-5.75-2.31-.88-1.29-2.49-2.27-1.59-4.3,1.05-2.36,2.58-.93,4.08-.77,5.65.58,8.54-2.25,8.45-8.09C15,7.66,14.41,6,9.79,2.31c3.47-4.15,6.09-1.83,8.56,1.21A17.5,17.5,0,0,1,22,14.59c0,2.83,1.23,3.81,3.77,4,2,.13,3.95.36,5.92.6s4.29,1,4,2.77c-.23,1.58.11,4.13-2.55,5a22.88,22.88,0,0,1-6.06,1.75C19.14,29.34,18.38,30,14.45,37.9Z" transform="translate(0 -0.07)"/><path class="cls-1" d="M189.38,48.14c-3.9,1.63-4.77-2.62-7.42-3.87-1.71,4.26-3,8.64-5.51,12.41-1.06,1.57-2.28,3.64-4.57,2.89s-2.28-3-2.47-5a7.23,7.23,0,0,1,2-5.9c4.91-4.71,5.12-11.08,6.82-17,.31-1.09-2.19-3.73,1.26-3.32,2.47.29,5.86.58,5.15,4.36-.56,2.92.22,3.67,2.92,3.19C187.52,40.12,190.89,43.77,189.38,48.14Z" transform="translate(0 -0.07)"/><path class="cls-1" d="M128.38,44.88c1.36-2.42,3-4.7,4.41-7.06.58-1-.08-4.13,2.63-3.14,2.46.9,5,2.2,5.78,5a3.91,3.91,0,0,1-2.08,4.57c-4.78,2.87-6.85,7.7-9.82,12.52,3.07.47,5.75.21,8.18,1.26,1.28.56,2.42,1.3,2.22,2.88a2.53,2.53,0,0,1-2.58,1.94c-3.42.14-7.21.84-10.22-.32-4.69-1.81-3.06-6.33-2.11-9.83.76-2.8,2.44-5.35,3.71-8Z" transform="translate(0 -0.07)"/><path class="cls-1" d="M204.27,41.22c1.52,2.17,4.66,2.93,5.21,6-.16,1.19.46,2.81-1.28,3.24a3.48,3.48,0,0,1-3.77-1.5c-1-1.26-2.05-2.43-3.08-3.64C201,43,202.47,42,204.27,41.22Z" transform="translate(0 -0.07)"/><path class="cls-1" d="M108.3,9.67c2.09-.72,4.12,1.76,6.17-.23.81-.78,1.27.44,1.51,1.2.46,1.46.79,2.89-.64,4.06a2.51,2.51,0,0,1-3.18.4A9,9,0,0,1,108.3,9.67Z" transform="translate(0 -0.07)"/></svg>