<?xml version="1.0" encoding="utf-8"?>
<!-- Generator: Adobe Illustrator 25.0.0, SVG Export Plug-In . SVG Version: 6.00 Build 0)  -->
<svg version="1.1" id="图层_1" xmlns="http://www.w3.org/2000/svg" xmlns:xlink="http://www.w3.org/1999/xlink" x="0px" y="0px"
	 viewBox="0 0 595.28 841.89" style="enable-background:new 0 0 595.28 841.89;" xml:space="preserve">
<style type="text/css">
	.st0{fill:#FEFEFE;}
	.st1{fill:#010101;}
	.st2{fill:#020202;}
	.st3{fill:#F2F2F2;}
	.st4{fill:#F5F5F5;}
	.st5{fill:#101010;}
	.st6{fill:#0B0B0B;}
	.st7{fill:#D1D1D1;}
	.st8{fill:#F3F3F3;}
	.st9{fill:#ECECEC;}
</style>
<g>
	<g>
		<path class="st0" d="M285.84,444.89c-44.31,0-88.62-0.04-132.93,0.08c-2.97,0.01-3.58-0.59-3.57-3.55
			c0.13-36.3,0.13-72.6,0-108.91c-0.01-2.95,0.6-3.55,3.57-3.55c88.62,0.1,177.24,0.1,265.86,0c2.97,0,3.58,0.59,3.57,3.55
			c-0.13,36.3-0.13,72.6,0,108.91c0.01,2.95-0.6,3.56-3.57,3.55C374.46,444.86,330.15,444.89,285.84,444.89z"/>
		<path class="st1" d="M298.54,401.85c-9.56-0.36-11.61,1.28-12.63,10.01c-0.25,2.12-0.67,4.22-0.93,6.34
			c-0.17,1.41,0.41,3.19-1.55,3.72c-2.28,0.62-3.79-0.87-5.07-2.38c-1.57-1.86-1.43-4.81-4.21-6.39c-2.97,5.78-9.52,5.61-14.44,8.38
			c-1.74,0.98-1.82-0.51-2.53-1.23c-1.07-1.09-0.81-1.93,0.24-2.85c1.99-1.74,3.88-3.58,5.89-5.29c2.4-2.04,4.72-4.14,6.3-6.91
			c1.06-1.85,2.03-3.38-1.36-4.06c-3.24-0.65-2.34-3.36-1.96-5.61c6.23,1.55,6.19,1.54,7.82-4.58c0.76-2.87,1.59-5.78,1.26-8.72
			c-0.19-1.67-0.22-3.5,0.58-4.56c0.68-0.9,2.45,0.13,3.54,0.91c1.59,1.13,2.43,2.46,1.93,4.62c-0.69,3-1.03,6.09-1.54,9.29
			c2.74-0.21,4.63-1.59,6.67-2.54c1.91-0.89,2.39-2.84,0.9-3.98c-4.76-3.64-1.96-7.4-0.05-10.57c3.26-5.42,8.34-9.76,9.59-16.37
			c0.18-0.95,1.01-1.47,1.85-1.02c2.17,1.15,4.57,2.16,6.28,3.83c2.04,1.99,0.7,3.73-1.35,5.19c-4.32,3.09-7.98,6.88-11.86,11.23
			c1.47,0.37,2.63,0.61,3.74,0.96c2.12,0.67,3.6,1.54,0.75,3.36c-1.25,0.8-2.01,2.11-1.4,3.36c0.77,1.58,2.41,0.58,3.55,0.33
			c3.87-0.84,7.7-1.91,11.54-2.89c0.96-0.24,2.05-0.91,2.84-0.66c2.27,0.72,5.68,1.1,5.52,3.98c-0.15,2.78-3.31,3.05-5.55,2.46
			c-5.86-1.55-11.02,0.89-16.38,2.31c-1.86,0.49-3.12,1.65-2.73,3.5c0.51,2.47,2.27,1.73,3.87,0.96c2.28-1.1,2.28,0.68,1.93,1.86
			c-0.41,1.39-1.19,2.68-1.18,4.2L298.54,401.85z"/>
		<path class="st1" d="M371.45,402.41c-1.61-0.26-2.85,0.01-3.51,1.81c-0.66,1.8,0.51,2.1,1.68,2.83c3.11,1.93,0.93,3.25-0.85,4.05
			c-4,1.78-8.2,3.12-11.65,6.22c-2.01-4.94,0.38-7.97,3.52-10.75c0.29-3.05,0.6-6.09,0.62-9.17c0.02-2.58-1.05-3.96-3.63-4.16
			c-1.64-1.97,0.51-2.93,1.41-3.36c4.2-2.01,4.1-6.09,2.55-8.6c-1.85-2.97,0.75-3.04,1.51-3.96c1.15-1.37,3.05-1.11,4.58-0.31
			c0.91,0.48,1.51,1.56,0.73,2.49c-2.38,2.83-0.12,5.79-0.46,8.76c1.5-1.12,2.65-2.25,2.79-4.25c0.13-1.81,1.98-4,2.91-3.8
			c5.93,1.28,3.93-2.87,3.95-5.42c0.02-2.66,1.61-6.5-0.8-7.67c-2.37-1.15-4.69,2.29-6.96,3.83c-1.06,0.72-2.4,2.16-3.4,0.91
			c-1.27-1.59,0.72-2.5,1.77-3.25c2.55-1.81,5.2-3.49,7.88-5.11c2.16-1.3,4.46-1.26,6.47,0.27c2.18,1.65,1.06,3.69,0.57,5.79
			c-3.02,12.94-2.45,25.8,1.51,38.46c1.04,3.33,3.41,5.66,7.11,6.09c3.45,0.4,7.3-0.14,8.9-3.02c1.24-2.23-1.85-4.62-3.65-6.33
			c-2.98-2.84-5.99-5.63-8.4-8.73c2.23-3.54,4.77-2.27,7.34-0.48c3.51,2.44,7.5,4.29,10.27,7.68c3.41,4.18,2.95,7.51-1.64,10.19
			c-2.54,1.49-5.32,2.74-8.15,3.5c-5.88,1.57-10.86-0.79-13.61-6.2c-1.04-2.04-1.7-4.26-2.54-6.4c-2.11-1.8-1.8-4.43-2.41-6.76
			c-0.57-2.19-0.27-4.52-1.1-6.66c-4.74,1.57-1.08,4.91-1.72,7.32C374.07,399.8,372.91,401.23,371.45,402.41z"/>
		<path class="st1" d="M198.98,411.08c-3.21,0.21-6.17,1.09-8.6,3.31c-0.79,0.72-1.65,1.13-2.67,0.53c-1.22-0.72-1.2-1.88-0.92-3.04
			c0.71-2.89,2.78-4.87,5.06-6.48c4.41-3.12,6.74-7.28,6.42-12.57c-0.18-2.83,0.99-4.34,3.39-3.91c2.18,0.39,4.25,1.84,3.61,4.93
			c-0.43,2.04-3.92,4.78,1.18,5.9c7.13,1.57,9.4,0.89,10.31-4.2c0.63-3.55,2.46-7.78-3.7-9.29c-2.84-0.7-2.41-4.07-1.8-6.46
			c1.13-4.36,3.65-8.5,0.28-13.08c-0.98-1.34,1.13-2.16,2.2-2.56c2.04-0.77,3.63,0.22,4.29,2.18c1.35,4.03,1.38,8.12-0.48,12.02
			c-1.23,2.59-1.64,4.36,1.39,6.42c3.86,2.62,5.24,7.23,3.76,11.45c-1.48,4.21,0.52,6.05,3.22,8.1c0.26,0.2,0.57,0.35,0.81,0.57
			c1.95,1.7,5.95,2.93,3.82,6.13c-1.86,2.8-5.87,2.28-8.47,0.53c-3.42-2.3-5.96-1.96-9.21,0.28c-3.8,2.62-10.62,3.54-15.7,2.92
			c0.04-1.98,1.95-1.89,2.98-2.7c1.11-1.81,3.38-2.05,4.76-3.49c0.53-0.86,2.26-1.23,1.18-2.72c-0.38-0.53-1.2-0.96-1.71-0.57
			c-1.24,0.96,0.62,2.01,0.09,3.07C203.16,410.27,201.07,410.67,198.98,411.08z"/>
		<path class="st1" d="M179.11,405.7c0.37-5.01,1.39-9.19,3.58-13c2.16-3.75-0.5-4.64-3.05-3.97c-3.06,0.81-4.19-0.81-5.59-2.62
			c-0.98-1.27-2.3-2.34-1.15-4.33c1.21-2.1,2.49-0.55,3.79-0.41c5.65,0.58,8.61-2.24,8.55-8.01c-0.06-5.33,0.01-10.7-5.43-13.93
			c3.48-4.26,6.09-1.88,8.54,1.09c2.64,3.2,3.61,7.08,3.7,11.05c0.06,2.73,1.05,3.9,3.68,4.07c1.81,0.11,3.61,0.43,5.43,0.56
			c2.09,0.15,4.69,0.74,4.62,2.75c-0.07,1.88-0.35,4.72-3.35,5.53c-1.55,0.42-2.91,1.23-4.67,1.29c-6.12,0.22-11.37,1.97-13.1,9.28
			c2.46,0.15,4.92,1.55,7.29-1.74c0.85,5.55-0.93,8.59-5.72,9.06c-1.96,0.2-2.08,1.25-2.39,2.43c-1.11,4.23-1.41,8.36,1.11,12.34
			c1.02,1.6,2.35,3.8,0.41,5.39c-1.66,1.37-3.32-0.4-4.86-1.25c-2.96-1.63-4.72-3.77-4.37-7.48c0.43-4.54-2-8.19-4.49-11.73
			c-0.7-1-2.44-1.99-1.08-3.27c1.47-1.38,2.74,0.17,3.72,1.19C175.82,401.63,177.2,403.42,179.11,405.7z"/>
		<path class="st2" d="M359.49,405.28c-3.9,1.63-4.78-2.62-7.43-3.87c-1.71,4.26-2.97,8.64-5.51,12.41
			c-1.06,1.57-2.28,3.64-4.57,2.89c-2.15-0.71-2.28-3-2.47-4.97c-0.21-2.26,0.55-4.47,2.04-5.9c4.92-4.7,5.13-11.07,6.82-16.97
			c0.31-1.09-2.19-3.73,1.25-3.32c2.48,0.29,5.87,0.58,5.15,4.36c-0.55,2.92,0.23,3.68,2.92,3.19
			C357.62,397.26,360.99,400.91,359.49,405.28z"/>
		<path class="st2" d="M298.43,402.02c1.37-2.41,2.97-4.7,4.41-7.06c0.59-0.96-0.08-4.13,2.63-3.14c2.46,0.9,4.97,2.2,5.78,4.99
			c0.56,1.92-0.39,3.56-2.08,4.57c-4.78,2.86-6.86,7.7-9.83,12.51c3.08,0.47,5.76,0.22,8.18,1.27c1.28,0.55,2.42,1.3,2.22,2.87
			c-0.18,1.38-1.61,1.9-2.58,1.94c-3.43,0.14-7.21,0.84-10.22-0.32c-4.7-1.81-3.06-6.33-2.11-9.83c0.76-2.8,2.44-5.35,3.71-7.99
			C298.54,401.85,298.43,402.02,298.43,402.02z"/>
		<path class="st3" d="M374.38,398.36c0.12-0.3,0.42-0.69,0.33-0.88c-2.44-4.76-2.45-4.76,2.98-9.98c0.89,5.75,1.75,11.28,2.6,16.81
			l-0.35,0l-0.35-0.01C377.27,402.83,374.76,401.52,374.38,398.36z"/>
		<path class="st4" d="M359.49,405.28c-0.32-4.1-4.29-7.67-1.79-12.18c0,0-0.07,0.13-0.07,0.13c3.15-2.64,4.82-1.6,4.79,2.18
			c-0.03,3.77,1.16,7.81-1.78,11.15C360.26,406.13,359.88,405.71,359.49,405.28z"/>
		<path class="st5" d="M374.38,398.36c1.52,2.17,4.66,2.93,5.21,5.95c-0.16,1.2,0.46,2.82-1.28,3.25c-1.49,0.37-2.79-0.21-3.77-1.5
			c-0.96-1.27-2.05-2.43-3.08-3.65C371.1,400.11,372.57,399.12,374.38,398.36z"/>
		<path class="st6" d="M278.22,366.89c2.24-0.84,4.27,1.7,6.31-0.3c0.81-0.79,1.3,0.39,1.54,1.17c0.45,1.45,0.81,2.89-0.61,4.07
			c-0.97,0.81-2,1.12-3.18,0.43C280.19,371.04,279.23,369.04,278.22,366.89z"/>
		<path class="st7" d="M205.3,409.31c-1.44,1.42-3.11,2.43-5.15,2.75c-0.39-0.33-0.78-0.66-1.17-0.98c1.73-0.95,3.46-1.9,5.19-2.84
			C204.78,408.36,205.17,408.7,205.3,409.31z"/>
		<path class="st8" d="M285,396.53c-1.18,2.87-2.26,5.51-3.36,8.15c-0.48,1.16-1.57,2.32-0.68,3.59c1.34,1.91,1.46,4.29-0.68,4.59
			c-1.52,0.21-3.77-2.05-4.15-4.23C275.24,403.57,279.38,397.88,285,396.53z"/>
		<path class="st9" d="M205.3,409.31c-0.38-0.36-0.75-0.72-1.13-1.08c-0.28-1.07-1.2-1.48-2.06-1.92c-0.93-0.49-1.05-1.13-0.5-1.96
			c0.46-0.7,1.05-1.5,1.95-1.02c1.83,0.97,4.7,0.99,5.22,3.12C209.14,407.89,206.74,408.61,205.3,409.31z"/>
	</g>
</g>
</svg>
